<svg width="299" height="141" viewBox="0 0 299 141" fill="none" xmlns="http://www.w3.org/2000/svg">
<path d="M164.769 0V141H125.569V63.2L98.9687 141H66.1687L39.3687 62.6V141H0.168701V0H47.5687L82.9687 91.6L117.569 0H164.769Z" fill="#00274C"/>
<path d="M298.483 47C298.483 55.5333 296.483 63.3333 292.483 70.4C288.616 77.3333 282.683 82.9333 274.683 87.2C266.816 91.3333 257.149 93.4 245.683 93.4H226.283V141H187.083V0H245.683C257.016 0 266.616 2 274.483 6.00001C282.483 10 288.483 15.5333 292.483 22.6C296.483 29.6667 298.483 37.8 298.483 47ZM241.883 62.2C252.949 62.2 258.483 57.1333 258.483 47C258.483 36.7333 252.949 31.6 241.883 31.6H226.283V62.2H241.883Z" fill="#00274C"/>
</svg>
